<svg xmlns="http://www.w3.org/2000/svg" viewBox="826.083 3659 144.021 324">
  <defs>
    <style>
      .cls-1, .cls-2 {
        fill: #9c6f4b;
      }

      .cls-2, .cls-5, .cls-6, .cls-7, .cls-8, .cls-9 {
        fill-rule: evenodd;
      }

      .cls-3, .cls-6 {
        fill: rgba(113,74,28,0.25);
      }

      .cls-4, .cls-7 {
        fill: rgba(255,252,249,0.7);
      }

      .cls-8 {
        fill: rgba(0,0,0,0.2);
      }

      .cls-9 {
        fill: #fff;
      }
    </style>
  </defs>
  <g id="bald" transform="translate(141 3408)">
    <path id="Path_299" data-name="Path 299" class="cls-1" d="M729.707,261.787h62.474v8.925h8.925v8.924h8.925V395.659h-8.925v8.925h-8.925v8.924H738.632v-8.924H720.783v-8.925h-8.925v-17.85h-17.85V351.035h8.925v-71.4h8.925v-8.924h17.849Z"/>
    <path id="Path_300" data-name="Path 300" class="cls-2" d="M720.783,422.433h71.4v8.925h8.925v17.85h-8.925v53.548h8.925v17.85h-8.925V565.23h-17.85V520.606h-8.924v17.849h-8.925v8.925h-8.925v17.85h-17.85V511.681h8.925v-8.925H711.858v-71.4h8.925Zm8.924,17.85h8.925v53.549h-8.925Z"/>
    <path id="Path_301" data-name="Path 301" class="cls-1" d="M801.106,449.208h8.925v26.774h8.924v17.85H801.106Z"/>
    <path id="Path_302" data-name="Path 302" class="cls-3" d="M792.181,261.787H747.557v8.925h35.7v8.924h17.85v71.4h8.925v-71.4h-8.925v-8.924h-8.925Z"/>
    <path id="Path_303" data-name="Path 303" class="cls-3" d="M711.858,279.636h-8.925v35.7h8.925Z"/>
    <path id="Path_304" data-name="Path 304" class="cls-3" d="M702.933,359.96h8.925v-8.925h8.925v44.624h-8.925V368.884h-8.925Z"/>
    <path id="Path_305" data-name="Path 305" class="cls-3" d="M720.783,395.659h26.774v8.925h44.624v8.924H738.632v-8.924H720.783Z"/>
    <path id="Path_306" data-name="Path 306" class="cls-3" d="M801.106,449.208h8.925v26.774h8.924v17.85H801.106Z"/>
    <path id="Path_307" data-name="Path 307" class="cls-3" d="M801.106,449.208h-8.925v-8.925h-8.925v-8.925H738.632v-8.925h53.549v8.925h8.925Z"/>
    <path id="Path_308" data-name="Path 308" class="cls-3" d="M801.106,502.756h-8.925V458.132h-8.925v44.624h8.925v17.85h8.925Z"/>
    <path id="Path_309" data-name="Path 309" class="cls-3" d="M783.256,529.531h8.925v35.7h-8.925Z"/>
    <path id="Path_310" data-name="Path 310" class="cls-3" d="M738.632,511.681h-8.925V565.23h17.85V547.38h-8.925Z"/>
    <path id="Path_311" data-name="Path 311" class="cls-3" d="M756.482,520.606h8.925v8.925h-8.925Z"/>
    <path id="Path_312" data-name="Path 312" class="cls-3" d="M729.707,458.132h-8.924v26.775h-8.925v17.849h26.774v-8.924h-8.925Z"/>
    <path id="Path_313" data-name="Path 313" class="cls-4" d="M738.632,279.636h8.925v8.925h-8.925Z"/>
    <path id="Path_314" data-name="Path 314" class="cls-4" d="M783.256,279.636H756.482v8.925h26.774v8.925h8.925v8.925h8.925v-8.925h-8.925v-8.925h-8.925Z"/>
    <path id="Path_315" data-name="Path 315" class="cls-4" d="M702.933,351.035h-8.925v8.925h8.925Z"/>
    <path id="Path_316" data-name="Path 316" class="cls-4" d="M720.783,422.433h17.849v8.925H720.783Z"/>
    <path id="Path_317" data-name="Path 317" class="cls-4" d="M720.783,431.358v8.925h-8.925v-8.925Z"/>
    <path id="Path_318" data-name="Path 318" class="cls-4" d="M756.482,453.67h-8.925v17.85h8.925Z"/>
    <path id="Path_319" data-name="Path 319" class="cls-4" d="M756.482,453.67h8.925v-8.925h-8.925Z"/>
    <path id="Path_320" data-name="Path 320" class="cls-4" d="M774.331,511.681h-8.924v8.925h8.924Z"/>
    <path id="Path_321" data-name="Path 321" class="cls-5" d="M792.181,252.862H729.707v8.925H711.858v8.925h-8.925v8.924h-8.925v71.4h-8.925v26.774h8.925v8.925h8.925v8.925h8.925v8.925h8.925v17.849h-8.925v8.925h-8.925v71.4h8.925v8.925h8.925v62.474h35.7V547.38h8.925v26.775h44.624V565.23h-8.925V520.606h8.925v-17.85h8.924v-8.924h8.925v-17.85h-8.925V449.208h-8.924v-17.85h-8.925v-8.925h-8.925v-8.925h8.925v-8.924h8.925v-8.925h8.924V279.636h-8.924v-8.924h-8.925v-8.925h-8.925Zm0,8.925v8.925h8.925v8.924h8.925V395.659h-8.925v8.925h-8.925v8.924H738.632v-8.924H720.783v-8.925h-8.925v-17.85h-17.85V351.035h8.925v8.925h8.925v-8.925h-8.925v-71.4h8.925v-8.924h17.849v-8.925Zm8.925,187.421h-8.925v53.548h8.925v17.85h-8.925V565.23h-17.85V520.606h-8.924v8.925h-8.925V547.38h-8.925v17.85h-17.85V511.681h17.85V493.832h-8.925V440.283h-8.925v53.549h8.925v8.924H711.858v-71.4h8.925v-8.925h71.4v8.925h8.925Zm0,0v44.624h17.849v-17.85h-8.924V449.208Z"/>
    <path id="Path_322" data-name="Path 322" class="cls-2" d="M792.979,260.114H730.413v9.115H712.537v9.114H703.6v72.915h-8.938V378.6h17.875v18.228h8.938v9.115h17.876v9.114h53.628v-9.114h8.938v-9.115h8.938V278.343h-8.938v-9.114h-8.938Z"/>
    <path id="Path_323" data-name="Path 323" class="cls-6" d="M748.289,260.114h44.69v9.115h8.938v9.114H784.041v-9.114H748.289Zm53.628,18.229h8.938v72.915h-8.938Zm-98.317,0h8.938v72.915H703.6Zm8.938,72.915h8.937v45.571h-8.937V369.486H703.6v-9.114h8.938Zm0-72.915v-9.114h8.937v9.114Zm8.937,118.486h26.814v9.115h44.69v9.114H739.351v-9.114H721.475Z"/>
    <path id="Path_324" data-name="Path 324" class="cls-7" d="M748.289,278.343h-8.938v9.114h8.938Zm8.938,0h26.814v9.114H757.227Zm35.752,18.229v-9.115h-8.938v9.115Zm0,0v9.114h8.938v-9.114Zm-98.317,54.686H703.6v9.114h-8.938Z"/>
    <path id="Path_325" data-name="Path 325" class="cls-5" d="M739.351,342.143h26.814v9.115h-8.938v18.228h-8.938V351.258h-8.938Zm44.69,45.572H766.165v9.114h17.876Zm0,0h8.938V378.6h-8.938Zm17.876-36.457H784.041v9.114h17.876Z"/>
    <path id="Path_326" data-name="Path 326" class="cls-6" d="M775.1,342.143h-8.938v9.115h-8.938v9.114h8.938v-9.114H775.1Z"/>
    <path id="Path_327" data-name="Path 327" class="cls-5" d="M730.413,251h62.566v9.114H730.413Zm-17.876,18.229v-9.115h17.876v9.115Zm-8.938,9.114v-9.114h8.938v9.114Zm0,72.915V278.343h-8.937v72.915h-8.938V378.6h8.938v9.114H703.6v9.114h8.938v9.115h8.938v9.114h17.876v9.114h53.628v-9.114h8.938v-9.114h8.938v-9.115h8.938V278.343h-8.938v-9.114h-8.938v-9.115h-8.938v9.115h8.938v9.114h8.938V396.829h-8.938v9.115h-8.938v9.114H739.351v-9.114H721.475v-9.115h-8.938V378.6H694.662V351.258Zm0,0v9.114h8.938v-9.114Z"/>
    <path id="Path_392" data-name="Path 392" class="cls-5" d="M747.917,507.138H730.041v50.9h17.876v-8.482h8.938v-8.483h8.938V515.621h8.938v42.413h17.876v-8.482h8.937V507.138H747.917Z"/>
    <path id="Path_393" data-name="Path 393" class="cls-5" d="M730.041,498.655H721.1V575h35.752V549.552h8.938V575h44.689v-8.483h-8.938V549.552h8.938v-50.9H730.041Zm44.69,67.862h17.875V549.552h8.938V524.1h-8.938v-8.482h8.938v-8.483h-71.5v8.483h8.938V524.1h-8.938v42.414h17.876V549.552h8.938v-8.483h8.938V515.621h8.938Z"/>
    <path id="Path_394" data-name="Path 394" class="cls-8" d="M730.041,507.138h8.938v8.483h-8.938Zm0,16.965h8.938v8.483h-8.938Zm17.876,25.449h-8.938v8.482h8.938Zm8.938-8.483h-8.938v8.483h8.938Zm0,0V515.621h8.938v25.448Zm44.689-33.931h-8.937v8.483h8.937ZM792.607,524.1h8.937v8.483h-8.937Zm-8.938,0h-8.938v33.931h17.876V541.069h-8.938Z"/>
    <path id="Path_395" data-name="Path 395" class="cls-5" d="M747.917,558.034H730.041v8.483h17.876Zm44.69,0H774.731v8.483h17.876Z"/>
    <path id="Path_396" data-name="Path 396" class="cls-8" d="M738.979,558.034h-8.938v8.483h8.938Zm44.69,0h-8.938v8.483h8.938Z"/>
    <path id="Path_407" data-name="Path 407" class="cls-5" d="M739.724,405.552h-8.938v9.155h-8.938v9.155h-8.937v9.155h-8.938v54.931h-8.938v18.311h8.938v9.155h17.875v-9.155h98.318V497.1h-8.938v-9.155H802.29v-36.62h8.938v27.465h8.938V497.1H829.1v-18.31h-8.938V451.328h-8.938V433.017H802.29v-9.155h-8.938v-9.155h-8.938v9.155h-8.938v9.155H757.6v-9.155h-8.938v-9.155h-8.938Zm0,9.155v9.155h8.938v9.155H757.6v9.155h17.876v-9.155h8.938v-9.155h8.938v9.155h8.938v18.311h-8.938V497.1H739.724V442.172h-8.938v9.156H712.911V433.017h8.937v-9.155h8.938v-9.155Zm-8.938,82.4h-8.938v9.156H703.973V487.948h8.938V460.483h17.875Z"/>
    <path id="Path_408" data-name="Path 408" class="cls-2" d="M775.476,423.862H757.6v9.155h17.876Zm-62.565,36.621h8.938v45.776H703.973V487.948h8.938Zm107.255,18.31h-8.938V497.1h8.938ZM802.29,451.328h8.938v36.62H802.29Zm-71.5,9.155h-8.937V497.1h8.937Z"/>
    <path id="Path_409" data-name="Path 409" class="cls-6" d="M757.6,423.862h17.876v9.155H757.6Zm44.69,27.466h8.938v27.465h8.938V497.1h-8.938v-9.155H802.29Zm-80.441,9.155h8.938V497.1h-8.938v9.156h-8.938V487.948h8.938Z"/>
    <path id="Path_410" data-name="Path 410" class="cls-9" d="M739.724,414.707h-8.937v9.155h-8.938v9.155h-8.938v18.311h17.876v-9.156h8.937V497.1h53.628V451.328h8.938V433.017h-8.938v-9.155h-8.938v9.155h-8.938v9.155H757.6v-9.155h-8.938v-9.155h-8.938Z"/>
    <path id="Path_411" data-name="Path 411" class="cls-8" d="M730.787,414.707h8.937v9.155h-8.937Zm53.627,9.155h8.938v9.155h-8.938Zm8.938,9.155v18.311h8.938V433.017Zm0,54.931H739.724V497.1h53.628Zm-53.628-54.931h-8.937v9.155h-8.938v9.156h8.938v-9.156h8.937Z"/>
  </g>
</svg>
