<svg xmlns="http://www.w3.org/2000/svg" viewBox="455 4813 877.79 71">
  <defs>
    <style>
      .cls-1 {
        fill: #faf1ac;
      }
    </style>
  </defs>
  <g id="create_room" data-name="create room" transform="translate(141 4476)">
    <path id="Path_451" data-name="Path 451" class="cls-1" d="M384,400.1h6.9V379.4H363.3v13.8H342.6V351.8h20.7v13.8h27.6V344.9H384V338H321.9v6.9H315v55.2h6.9V407H384Zm41.346-20.7h20.7V407h27.6V379.4h-6.9V365.6h6.9V344.9h-6.9V338h-69v69h27.6Zm0-27.6h20.7v13.8h-20.7ZM487.392,407h69V393.2h-48.3V379.4h20.7V365.6h-20.7V351.8h48.3V338h-69v6.9h-6.9v55.2h6.9Zm103.446-27.6h20.7V407h27.6V344.9h-6.9V338h-62.1v6.9h-6.9V407h27.6Zm0-27.6h20.7v13.8h-20.7Zm103.446,0h20.7V338h-69v13.8h20.7V407h27.6ZM728.757,407h69V393.2h-48.3V379.4h20.7V365.6h-20.7V351.8h48.3V338h-69v6.9h-6.9v55.2h6.9ZM880.45,379.4h20.7V407h27.6V379.4h-6.9V365.6h6.9V344.9h-6.9V338h-69v69h27.6Zm0-27.6h20.7v13.8h-20.7Zm124.15,48.3h6.9V344.9h-6.9V338H942.5v6.9h-6.9v55.2h6.9V407h62.1Zm-20.7-20.7v13.8H963.2V351.8h20.7v27.6Zm103.444,20.7h6.9V344.9h-6.9V338h-62.1v6.9h-6.9v55.2h6.9V407h62.1Zm-20.7-20.7v13.8h-20.7V351.8h20.7v27.6Zm62.05-6.9h6.9v6.9h6.9v6.9h6.9v-6.9h6.9v-6.9h6.9V407h27.6V338h-27.6v6.9h-6.9v6.9h-6.9v6.9h-6.9v-6.9h-6.9v-6.9h-6.9V338h-27.6v69h27.6Z"/>
    <path id="Path_452" data-name="Path 452" d="M384,400.1v-1h-1v1Zm6.9,0v1h1v-1Zm0-20.7h1v-1h-1Zm-27.6,0v-1h-1v1Zm0,13.8v1h1v-1Zm-20.7,0h-1v1h1Zm0-41.4v-1h-1v1Zm20.7,0h1v-1h-1Zm0,13.8h-1v1h1Zm27.6,0v1h1v-1Zm0-20.7h1v-1h-1Zm-6.9,0h-1v1h1Zm0-6.9h1v-1h-1Zm-62.1,0v-1h-1v1Zm0,6.9v1h1v-1Zm-6.9,0v-1h-1v1Zm0,55.2h-1v1h1Zm6.9,0h1v-1h-1Zm0,6.9h-1v1h1Zm62.1,0v1h1v-1Zm0-5.9h6.9v-2H384Zm7.9-1V379.4h-2v20.7Zm-1-21.7H384v2h6.9Zm-6.9,0H363.3v2H384Zm-21.7,1v13.8h2V379.4Zm1,12.8H342.6v2h20.7Zm-19.7,1V351.8h-2v41.4Zm-1-40.4h20.7v-2H342.6Zm19.7-1v13.8h2V351.8Zm1,14.8h27.6v-2H363.3Zm28.6-1V344.9h-2v20.7Zm-1-21.7H384v2h6.9Zm-5.9,1V338h-2v6.9Zm-1-7.9H342.6v2H384Zm-41.4,0H321.9v2h20.7Zm-21.7,1v6.9h2V338Zm1,5.9H315v2h6.9Zm-7.9,1v55.2h2V344.9Zm1,56.2h6.9v-2H315Zm5.9-1V407h2v-6.9Zm1,7.9H384v-2H321.9Zm63.1-1v-6.9h-2V407Zm40.346-27.6v-1h-1v1Zm20.7,0h1v-1h-1Zm0,27.6h-1v1h1Zm27.6,0v1h1v-1Zm0-27.6h1v-1h-1Zm-6.9,0h-1v1h1Zm0-13.8v-1h-1v1Zm6.9,0v1h1v-1Zm0-20.7h1v-1h-1Zm-6.9,0h-1v1h1Zm0-6.9h1v-1h-1Zm-69,0v-1h-1v1Zm0,69h-1v1h1Zm27.6,0v1h1v-1Zm0-55.2v-1h-1v1Zm20.7,0h1v-1h-1Zm0,13.8v1h1v-1Zm-20.7,0h-1v1h1Zm0,14.8h20.7v-2h-20.7Zm19.7-1V407h2V379.4Zm1,28.6h27.6v-2h-27.6Zm28.6-1V379.4h-2V407Zm-1-28.6h-6.9v2h6.9Zm-5.9,1V365.6h-2v13.8Zm-1-12.8h6.9v-2h-6.9Zm7.9-1V344.9h-2v20.7Zm-1-21.7h-6.9v2h6.9Zm-5.9,1V338h-2v6.9Zm-1-7.9h-20.7v2h20.7Zm-20.7,0h-20.7v2h20.7Zm-20.7,0h-27.6v2h27.6Zm-28.6,1v69h2V338Zm1,70h27.6v-2h-27.6Zm28.6-1V379.4h-2V407Zm-1-54.2h20.7v-2h-20.7Zm19.7-1v13.8h2V351.8Zm1,12.8h-20.7v2h20.7Zm-19.7,1V351.8h-2v13.8ZM487.392,407h-1v1h1Zm69,0v1h1v-1Zm0-13.8h1v-1h-1Zm-48.3,0h-1v1h1Zm0-13.8v-1h-1v1Zm20.7,0v1h1v-1Zm0-13.8h1v-1h-1Zm-20.7,0h-1v1h1Zm0-13.8v-1h-1v1Zm48.3,0v1h1v-1Zm0-13.8h1v-1h-1Zm-69,0v-1h-1v1Zm0,6.9v1h1v-1Zm-6.9,0v-1h-1v1Zm0,55.2h-1v1h1Zm6.9,0h1v-1h-1Zm0,7.9h69v-2h-69Zm70-1V393.2h-2V407Zm-1-14.8h-48.3v2h48.3Zm-47.3,1V379.4h-2v13.8Zm-1-12.8h20.7v-2h-20.7Zm21.7-1V365.6h-2v13.8Zm-1-14.8h-20.7v2h20.7Zm-19.7,1V351.8h-2v13.8Zm-1-12.8h48.3v-2h-48.3Zm49.3-1V338h-2v13.8Zm-1-14.8h-69v2h69Zm-70,1v6.9h2V338Zm1,5.9h-6.9v2h6.9Zm-7.9,1v55.2h2V344.9Zm1,56.2h6.9v-2h-6.9Zm5.9-1V407h2v-6.9Zm104.446-20.7v-1h-1v1Zm20.7,0h1v-1h-1Zm0,27.6h-1v1h1Zm27.6,0v1h1v-1Zm0-62.1h1v-1h-1Zm-6.9,0h-1v1h1Zm0-6.9h1v-1h-1Zm-62.1,0v-1h-1v1Zm0,6.9v1h1v-1Zm-6.9,0v-1h-1v1Zm0,62.1h-1v1h1Zm27.6,0v1h1v-1Zm0-55.2v-1h-1v1Zm20.7,0h1v-1h-1Zm0,13.8v1h1v-1Zm-20.7,0h-1v1h1Zm0,14.8h20.7v-2h-20.7Zm19.7-1V407h2V379.4Zm1,28.6h27.6v-2h-27.6Zm28.6-1V344.9h-2V407Zm-1-63.1h-6.9v2h6.9Zm-5.9,1V338h-2v6.9Zm-1-7.9h-20.7v2h20.7Zm-20.7,0h-41.4v2h41.4Zm-42.4,1v6.9h2V338Zm1,5.9h-6.9v2h6.9Zm-7.9,1V407h2V344.9Zm1,63.1h27.6v-2h-27.6Zm28.6-1V379.4h-2V407Zm-1-54.2h20.7v-2h-20.7Zm19.7-1v13.8h2V351.8Zm1,12.8h-20.7v2h20.7Zm-19.7,1V351.8h-2v13.8Zm102.446-13.8v-1h-1v1Zm20.7,0v1h1v-1Zm0-13.8h1v-1h-1Zm-69,0v-1h-1v1Zm0,13.8h-1v1h1Zm20.7,0h1v-1h-1Zm0,55.2h-1v1h1Zm27.6,0v1h1v-1Zm0-54.2h20.7v-2h-20.7Zm21.7-1V338h-2v13.8Zm-1-14.8h-69v2h69Zm-70,1v13.8h2V338Zm1,14.8h20.7v-2h-20.7Zm19.7-1V407h2V351.8Zm1,56.2h27.6v-2h-27.6Zm28.6-1V351.8h-2V407Zm33.473,0h-1v1h1Zm69,0v1h1v-1Zm0-13.8h1v-1h-1Zm-48.3,0h-1v1h1Zm0-13.8v-1h-1v1Zm20.7,0v1h1v-1Zm0-13.8h1v-1h-1Zm-20.7,0h-1v1h1Zm0-13.8v-1h-1v1Zm48.3,0v1h1v-1Zm0-13.8h1v-1h-1Zm-69,0v-1h-1v1Zm0,6.9v1h1v-1Zm-6.9,0v-1h-1v1Zm0,55.2h-1v1h1Zm6.9,0h1v-1h-1Zm0,7.9h69v-2h-69Zm70-1V393.2h-2V407Zm-1-14.8h-48.3v2h48.3Zm-47.3,1V379.4h-2v13.8Zm-1-12.8h20.7v-2h-20.7Zm21.7-1V365.6h-2v13.8Zm-1-14.8h-20.7v2h20.7Zm-19.7,1V351.8h-2v13.8Zm-1-12.8h48.3v-2h-48.3Zm49.3-1V338h-2v13.8Zm-1-14.8h-69v2h69Zm-70,1v6.9h2V338Zm1,5.9h-6.9v2h6.9Zm-7.9,1v55.2h2V344.9Zm1,56.2h6.9v-2h-6.9Zm5.9-1V407h2v-6.9ZM880.45,379.4v-1h-1v1Zm20.7,0h1v-1h-1Zm0,27.6h-1v1h1Zm27.6,0v1h1v-1Zm0-27.6h1v-1h-1Zm-6.9,0h-1v1h1Zm0-13.8v-1h-1v1Zm6.9,0v1h1v-1Zm0-20.7h1v-1h-1Zm-6.9,0h-1v1h1Zm0-6.9h1v-1h-1Zm-69,0v-1h-1v1Zm0,69h-1v1h1Zm27.6,0v1h1v-1Zm0-55.2v-1h-1v1Zm20.7,0h1v-1h-1Zm0,13.8v1h1v-1Zm-20.7,0h-1v1h1Zm0,14.8h20.7v-2h-20.7Zm19.7-1V407h2V379.4Zm1,28.6h27.6v-2h-27.6Zm28.6-1V379.4h-2V407Zm-1-28.6h-6.9v2h6.9Zm-5.9,1V365.6h-2v13.8Zm-1-12.8h6.9v-2h-6.9Zm7.9-1V344.9h-2v20.7Zm-1-21.7h-6.9v2h6.9Zm-5.9,1V338h-2v6.9Zm-1-7.9h-20.7v2h20.7Zm-20.7,0h-20.7v2h20.7Zm-20.7,0h-27.6v2h27.6Zm-28.6,1v69h2V338Zm1,70h27.6v-2h-27.6Zm28.6-1V379.4h-2V407Zm-1-54.2h20.7v-2h-20.7Zm19.7-1v13.8h2V351.8Zm1,12.8h-20.7v2h20.7Zm-19.7,1V351.8h-2v13.8Zm123.15,34.5v-1h-1v1Zm6.9,0v1h1v-1Zm0-55.2h1v-1h-1Zm-6.9,0h-1v1h1Zm0-6.9h1v-1h-1Zm-62.1,0v-1h-1v1Zm0,6.9v1h1v-1Zm-6.9,0v-1h-1v1Zm0,55.2h-1v1h1Zm6.9,0h1v-1h-1Zm0,6.9h-1v1h1Zm62.1,0v1h1v-1Zm-20.7-13.8v1h1v-1Zm-20.7,0h-1v1h1Zm0-41.4v-1h-1v1Zm20.7,0h1v-1h-1Zm20.7,49.3h6.9v-2h-6.9Zm7.9-1V344.9h-2v55.2Zm-1-56.2h-6.9v2h6.9Zm-5.9,1V338h-2v6.9Zm-1-7.9H942.5v2h62.1Zm-63.1,1v6.9h2V338Zm1,5.9h-6.9v2h6.9Zm-7.9,1v55.2h2V344.9Zm1,56.2h6.9v-2h-6.9Zm5.9-1V407h2v-6.9Zm1,7.9h62.1v-2H942.5Zm63.1-1v-6.9h-2V407Zm-22.7-27.6v13.8h2V379.4Zm1,12.8H963.2v2h20.7Zm-19.7,1V351.8h-2v41.4Zm-1-40.4h20.7v-2H963.2Zm19.7-1v13.8h2V351.8Zm0,13.8v13.8h2V365.6Zm104.444,34.5v-1h-1v1Zm6.9,0v1h1v-1Zm0-55.2h1v-1h-1Zm-6.9,0h-1v1h1Zm0-6.9h1v-1h-1Zm-62.1,0v-1h-1v1Zm0,6.9v1h1v-1Zm-6.9,0v-1h-1v1Zm0,55.2h-1v1h1Zm6.9,0h1v-1h-1Zm0,6.9h-1v1h1Zm62.1,0v1h1v-1Zm-20.7-13.8v1h1v-1Zm-20.7,0h-1v1h1Zm0-41.4v-1h-1v1Zm20.7,0h1v-1h-1Zm20.7,49.3h6.9v-2h-6.9Zm7.9-1V344.9h-2v55.2Zm-1-56.2h-6.9v2h6.9Zm-5.9,1V338h-2v6.9Zm-1-7.9h-62.1v2h62.1Zm-63.1,1v6.9h2V338Zm1,5.9h-6.9v2h6.9Zm-7.9,1v55.2h2V344.9Zm1,56.2h6.9v-2h-6.9Zm5.9-1V407h2v-6.9Zm1,7.9h62.1v-2h-62.1Zm63.1-1v-6.9h-2V407Zm-22.7-27.6v13.8h2V379.4Zm1,12.8h-20.7v2h20.7Zm-19.7,1V351.8h-2v41.4Zm-1-40.4h20.7v-2h-20.7Zm19.7-1v13.8h2V351.8Zm0,13.8v13.8h2V365.6Zm63.05,6.9v-1h-1v1Zm6.9,0h1v-1h-1Zm0,6.9h-1v1h1Zm6.9,0h1v-1h-1Zm0,6.9h-1v1h1Zm6.9,0v1h1v-1Zm0-6.9v-1h-1v1Zm6.9,0v1h1v-1Zm0-6.9v-1h-1v1Zm6.9,0h1v-1h-1Zm0,34.5h-1v1h1Zm27.6,0v1h1v-1Zm0-69h1v-1h-1Zm-27.6,0v-1h-1v1Zm0,6.9v1h1v-1Zm-6.9,0v-1h-1v1Zm0,6.9v1h1v-1Zm-6.9,0v-1h-1v1Zm0,6.9v1h1v-1Zm-6.9,0h-1v1h1Zm0-6.9h1v-1h-1Zm-6.9,0h-1v1h1Zm0-6.9h1v-1h-1Zm-6.9,0h-1v1h1Zm0-6.9h1v-1h-1Zm-27.6,0v-1h-1v1Zm0,69h-1v1h1Zm27.6,0v1h1v-1Zm0-33.5h6.9v-2h-6.9Zm5.9-1v6.9h2v-6.9Zm1,7.9h6.9v-2h-6.9Zm5.9-1v6.9h2v-6.9Zm1,7.9h6.9v-2h-6.9Zm7.9-1v-6.9h-2v6.9Zm-1-5.9h6.9v-2h-6.9Zm7.9-1v-6.9h-2v6.9Zm-1-5.9h6.9v-2h-6.9Zm5.9-1V407h2V372.5Zm1,35.5h27.6v-2h-27.6Zm28.6-1V338h-2v69Zm-1-70h-27.6v2h27.6Zm-28.6,1v6.9h2V338Zm1,5.9h-6.9v2h6.9Zm-7.9,1v6.9h2v-6.9Zm1,5.9h-6.9v2h6.9Zm-7.9,1v6.9h2v-6.9Zm1,5.9h-6.9v2h6.9Zm-5.9,1v-6.9h-2v6.9Zm-1-7.9h-6.9v2h6.9Zm-5.9,1v-6.9h-2v6.9Zm-1-7.9h-6.9v2h6.9Zm-5.9,1V338h-2v6.9Zm-1-7.9h-27.6v2h27.6Zm-28.6,1v69h2V338Zm1,70h27.6v-2h-27.6Zm28.6-1V372.5h-2V407Z"/>
  </g>
</svg>
