<svg xmlns="http://www.w3.org/2000/svg" viewBox="1057.62 3716.553 76.345 158.447">
  <defs>
    <style>
      .cls-1, .cls-2 {
        fill: #f3cca7;
      }

      .cls-11, .cls-2, .cls-4, .cls-5, .cls-6, .cls-7, .cls-8, .cls-9 {
        fill-rule: evenodd;
      }

      .cls-3 {
        fill: #d4b194;
      }

      .cls-5 {
        fill: #fae6ce;
      }

      .cls-6 {
        fill: rgba(113,74,28,0.25);
      }

      .cls-10, .cls-7 {
        fill: rgba(255,252,249,0.7);
      }

      .cls-8 {
        fill: rgba(0,0,0,0.2);
      }

      .cls-9 {
        fill: rgba(255,255,255,0.3);
      }

      .cls-11 {
        fill: #e62e2e;
      }
    </style>
  </defs>
  <g id="girl" transform="translate(141 3408)">
    <path id="Path_276" data-name="Path 276" class="cls-1" d="M941.137,312.926h30.612V317.3h4.373v4.373h4.373v56.851h-4.373V382.9h-4.373v4.374H945.51V382.9h-8.747v-4.373H932.39v-8.746h-8.746V356.658h4.373V321.672h4.373V317.3h8.747Z"/>
    <path id="Path_277" data-name="Path 277" class="cls-2" d="M936.763,391.643h34.986v4.373h4.373v8.746h-4.373V431h4.373v8.746h-4.373v21.866H963V439.747h-4.373v8.747h-4.373v4.373h-4.373v8.746h-8.746V435.374h4.373V431H932.39V396.016h4.373Zm4.374,8.746h4.373v26.239h-4.373Z"/>
    <path id="Path_278" data-name="Path 278" class="cls-1" d="M976.122,404.762h4.373v13.12h4.373v8.746h-8.746Z"/>
    <path id="Path_279" data-name="Path 279" class="cls-1" d="M971.749,312.926H949.883V317.3h17.492v4.373h8.747v34.986h4.373V321.672h-4.373V317.3h-4.373Z"/>
    <path id="Path_280" data-name="Path 280" class="cls-1" d="M932.39,321.672h-4.373v17.493h4.373Z"/>
    <path id="Path_281" data-name="Path 281" class="cls-1" d="M928.017,361.031h4.373v-4.373h4.373v21.865H932.39V365.4h-4.373Z"/>
    <path id="Path_282" data-name="Path 282" class="cls-1" d="M936.763,378.523h13.12V382.9h21.866v4.374H945.51V382.9h-8.747Z"/>
    <path id="Path_283" data-name="Path 283" class="cls-1" d="M976.122,404.762h4.373v13.12h4.373v8.746h-8.746Z"/>
    <path id="Path_284" data-name="Path 284" class="cls-1" d="M976.122,404.762h-4.373v-4.373h-4.374v-4.373H945.51v-4.373h26.239v4.373h4.373Z"/>
    <path id="Path_285" data-name="Path 285" class="cls-1" d="M976.122,431h-4.373V409.135h-4.374V431h4.374v8.746h4.373Z"/>
    <path id="Path_286" data-name="Path 286" class="cls-1" d="M967.375,444.121h4.374v17.492h-4.374Z"/>
    <path id="Path_287" data-name="Path 287" class="cls-1" d="M945.51,435.374h-4.373v26.239h8.746v-8.746H945.51Z"/>
    <path id="Path_288" data-name="Path 288" class="cls-1" d="M954.256,439.747h4.373v4.374h-4.373Z"/>
    <path id="Path_289" data-name="Path 289" class="cls-1" d="M941.137,409.135h-4.374v13.12H932.39V431h13.12v-4.373h-4.373Z"/>
    <path id="Path_290" data-name="Path 290" class="cls-3" d="M945.51,321.672h4.373v4.373H945.51Z"/>
    <path id="Path_291" data-name="Path 291" class="cls-3" d="M967.376,321.672h-13.12v4.373h13.12v4.374h4.373v4.373h4.373v-4.373h-4.373v-4.374h-4.373Z"/>
    <path id="Path_292" data-name="Path 292" class="cls-3" d="M928.017,356.657h-4.373v4.374h4.373Z"/>
    <path id="Path_293" data-name="Path 293" class="cls-3" d="M936.763,391.643h8.747v4.373h-8.747Z"/>
    <path id="Path_294" data-name="Path 294" class="cls-3" d="M936.763,396.016v4.373H932.39v-4.373Z"/>
    <path id="Path_295" data-name="Path 295" class="cls-3" d="M954.256,406.949h-4.373V415.7h4.373Z"/>
    <path id="Path_296" data-name="Path 296" class="cls-3" d="M954.256,406.949h4.373v-4.374h-4.373Z"/>
    <path id="Path_297" data-name="Path 297" class="cls-3" d="M963,435.374h-4.373v4.373H963Z"/>
    <path id="Path_298" data-name="Path 298" class="cls-4" d="M971.748,308.553H941.136v4.373H932.39V317.3h-4.373v4.373h-4.373v34.985h-4.373v13.12h4.373v4.373h4.373v4.373h4.373V382.9h4.373v8.747H932.39v4.373h-4.373V431h4.373v4.373h4.373v30.612h17.493V452.867h4.373v13.119h21.866v-4.373h-4.374V439.747h4.374V431h4.373v-4.373h4.373v-8.747h-4.373V404.762h-4.373v-8.746h-4.374v-4.373h-4.373v-4.374h4.373V382.9h4.374v-4.373h4.373V321.672h-4.373V317.3h-4.374v-4.373h-4.373Zm0,4.373V317.3h4.373v4.373h4.374v56.851h-4.374V382.9h-4.373v4.373H945.509V382.9h-8.746v-4.373H932.39v-8.746h-8.746v-13.12h4.373v4.374h4.373v-4.374h-4.373V321.672h4.373V317.3h8.746v-4.373Zm4.373,91.836h-4.373V431h4.373v8.746h-4.373v21.866H963V439.747h-4.373v4.373h-4.373v8.747h-4.373v8.746h-8.747V435.374h8.747v-8.746h-4.374V400.389h-4.373v26.239h4.373V431H932.39V396.016h4.373v-4.373h34.985v4.373h4.373Zm0,0v21.866h8.747v-8.747h-4.373V404.762Z"/>
    <path id="Path_397" data-name="Path 397" class="cls-5" d="M970.247,313.232H938.965v72.131h4.469v4.508h26.813v-4.508h4.469v-4.508h4.469V322.249h-4.469V317.74h-4.469Zm-49.158,45.082h4.469V322.249h4.469V317.74h8.938v67.623H934.5v-4.508h-4.469v-9.017h-8.938Z"/>
    <path id="Path_398" data-name="Path 398" class="cls-6" d="M947.9,313.232h22.345v4.508h4.469v4.509h-8.938V317.74H947.9Zm26.814,9.017h4.469v36.065h-4.469Zm-49.159,0h4.469v36.065h-4.469Zm8.938,58.606h-4.469V367.33h-4.469v-4.508h4.469v-4.508H934.5Zm13.407,4.508v-4.508H934.5v4.508h8.938v4.508h26.814v-4.508Zm-17.876-63.114V317.74H934.5v4.509Z"/>
    <path id="Path_399" data-name="Path 399" class="cls-7" d="M947.9,322.249h-4.469v4.508H947.9Zm4.469,0h13.407v4.508H952.372Zm17.875,9.016v-4.508h-4.468v4.508Zm0,0v4.508h4.469v-4.508Zm-49.158,27.049h4.469v4.508h-4.469Z"/>
    <path id="Path_400" data-name="Path 400" class="cls-4" d="M947.9,353.806h4.469v4.508H947.9Zm0,4.508v4.508h-4.469v-4.508Zm4.469,0h4.469v4.508h-4.469Zm4.469,18.033h8.938v4.508h-8.938Zm0,0h-4.469v-4.509h4.469Zm8.938,0h4.469v-4.509h-4.469Zm0-18.033H961.31v4.508h4.469Zm4.469,0h-4.469v-4.508h4.469Zm0,0v4.508h4.469v-4.508Z"/>
    <path id="Path_401" data-name="Path 401" class="cls-6" d="M956.841,353.806h-4.469v4.508h4.469v4.508h4.469v-4.508h-4.469Z"/>
    <path id="Path_402" data-name="Path 402" class="cls-4" d="M938.965,308.724h31.283v4.508H938.965Zm-8.938,9.016v-4.508h8.938v4.508Zm-4.469,4.509V317.74h4.469v4.509Zm0,36.065V322.249h-4.469v36.065H916.62v13.524h4.469v4.509h4.469v4.508h4.469v4.508H934.5v4.508h8.938v4.508h26.814v-4.508h4.469v-4.508h4.469v-4.508h4.469V322.249h-4.469V317.74h-4.469v-4.508h-4.469v4.508h4.469v4.509h4.469v58.606h-4.469v4.508h-4.469v4.508H943.434v-4.508H934.5v-4.508h-4.469v-9.017h-8.938V358.314Zm0,0v4.508h4.469v-4.508Z"/>
    <path id="Path_403" data-name="Path 403" class="cls-4" d="M940.729,312.691h-4.018v3.967h-8.037v3.967h-4.018v31.736h4.018v3.967h8.037v-7.934h4.018v-3.967h8.036V340.46H956.8v-3.967h4.018v-3.967h4.018v3.967h4.018v3.967h4.018v3.967h4.018V316.658h-4.018v-3.967H940.729ZM924.656,372.2h4.018v3.967h4.019v3.967h4.018v7.934h-4.018v3.967H920.638v-3.967h4.018Zm52.236-47.6h4.018v11.9h4.019v39.67H980.91V384.1h4.019v3.967h4.018v3.967H980.91V396h-4.018V368.229h4.018V352.361h-4.018Zm0,55.538h-4.018v11.9h4.018Z"/>
    <path id="Path_404" data-name="Path 404" class="cls-8" d="M968.856,316.658h-4.018v7.934H960.82v7.934h4.018v-7.934h4.018Zm-44.2,3.967h4.018v27.769h4.019v-3.967h8.036v3.967h-4.018v7.934h-8.037v-3.967h-4.018ZM956.8,336.493h-8.036v3.967h-8.036v3.967h8.036V340.46H956.8Zm0,0v-3.967h4.019v3.967Zm24.109,31.736h-4.018v11.9h-4.018v11.9h4.018V396h4.018v-3.968h8.037v-3.967h-4.019V384.1H980.91v-7.934h4.018v-39.67H980.91Z"/>
    <path id="Path_405" data-name="Path 405" class="cls-9" d="M956.8,316.658h4.018v7.934H956.8Zm-4.018,11.9v-3.967H956.8v3.967Zm-8.037,0h8.037v3.967h-8.037Zm-8.036,0h8.036v-3.967h4.019v-7.934h-4.019v7.934h-8.036Zm0,0v3.967h-4.018v-3.967Zm4.018,3.967h4.018v3.967h-4.018Zm-8.036,0h-4.018v7.934h4.018Z"/>
    <path id="Path_406" data-name="Path 406" class="cls-4" d="M972.874,308.724H936.711v3.967h-8.036v3.967h-4.019v3.967h-4.018v31.736h4.018V320.625h4.019v-3.967h8.036v-3.967h36.163v3.967h4.018v7.934h4.018v11.9h4.019v39.67H980.91V384.1h4.019v3.967h4.018v3.967H980.91V396h-4.018v-3.967h-4.018V384.1h-4.018v7.934h4.018V396h4.018v3.968h4.018V396h8.037v-3.967h4.018v-3.967h-4.018V384.1h-4.018v-7.934h4.018v-39.67h-4.018v-11.9H980.91v-7.934h-4.018v-3.967h-4.018ZM920.638,372.2h4.018v15.868h-4.018Zm0,19.835H916.62v-3.967h4.018Zm12.055,0V396H920.638v-3.967Zm4.018-3.967v3.967h-4.018v-3.967Zm0,0V384.1h4.018v3.967Zm36.163-19.835h4.018v11.9h-4.018Z"/>
    <path id="Path_417" data-name="Path 417" class="cls-5" d="M968.758,385.853H950.882v4.508h4.469v4.508h8.938v-4.508h4.469Zm-35.751,9.016h8.937v31.558h-4.468v4.508h-8.938v-9.017h4.469Zm49.158,22.541h4.469v9.017H977.7V403.886h4.469Z"/>
    <path id="Path_418" data-name="Path 418" class="cls-6" d="M968.758,385.853H950.882v4.508h17.876Zm8.938,18.033h4.469V417.41h4.469v9.017H977.7Zm-40.22,4.508h4.468v22.541H928.538v-9.017h8.938Z"/>
    <path id="Path_419" data-name="Path 419" class="cls-10" d="M933.007,394.869h4.469v4.509h-4.469Z"/>
    <path id="Path_420" data-name="Path 420" class="cls-11" d="M941.945,385.853h4.469v4.508h4.469v4.508h4.469v58.606H933.007v-4.509h4.469v-9.016h4.469V426.427h4.469V394.869h-4.469Zm22.345,13.525h-8.938v54.1h26.813v-9.017H977.7V430.935h-4.468V390.361h-4.469v4.508H964.29Z"/>
    <path id="Path_421" data-name="Path 421" class="cls-8" d="M941.945,385.853h4.469v4.508h-4.469Zm4.469,4.508h4.468v4.508h-4.468Zm26.813,0h-4.469v4.508h-4.469v4.509h4.469v4.508h4.469Zm-8.938,45.082h4.469v9.016h-4.469Zm0,9.016v9.017H959.82v-9.017Zm4.469-18.032h-4.469v4.508h4.469ZM964.289,412.9h4.469v9.016h-4.469Zm-8.938,27.049h-4.469v4.508h-4.468v4.508h4.468v-4.508h4.469Zm0,0h4.469v-9.016h-4.469ZM950.882,412.9h-4.468v13.525h-4.469v9.016h4.469v-9.016h4.468Zm-8.937,27.049h-4.469v4.508h4.469Zm35.751,4.508h4.469v9.017H977.7Zm0-13.524h-4.469v9.016H977.7Z"/>
    <path id="Path_422" data-name="Path 422" class="cls-9" d="M946.414,390.361h-4.469v4.508h4.469ZM964.29,417.41h-4.469v9.017h4.469Zm-13.407,18.033h4.469v4.508h-4.469Zm-4.469,4.508h4.469v4.508h-4.469Zm0,4.508v9.017h-4.469v-9.017Zm8.938,0h4.469v9.017h-4.469Zm4.469,0v-4.508h4.469v4.508Z"/>
    <path id="Path_423" data-name="Path 423" class="cls-4" d="M950.883,457.984h-8.938v4.508h8.938Zm22.345,0H964.29v4.508h8.938Z"/>
    <path id="Path_424" data-name="Path 424" class="cls-8" d="M946.414,457.984h-4.469v4.508h4.469Zm22.345,0H964.29v4.508h4.469Z"/>
    <path id="Path_425" data-name="Path 425" class="cls-4" d="M941.945,381.345h4.469v4.508h-4.469Zm0,13.524v-9.016h-4.469v4.508h-4.469v4.508h-4.469v27.049h-4.469v9.017h4.469v4.508h8.938v4.508h-4.469v9.016h-4.469v9.017h8.938V467h17.876v-9.016h4.469V467h22.344v-4.508H977.7v-4.508h8.938V444.459h-4.469V430.935h4.469v-4.508H991.1V417.41h-4.469V403.886h-4.469v-9.017H977.7v-4.508h-4.469v-4.508h-4.468v4.508H964.29v4.508h-8.938v-4.508h-4.469v-4.508h-4.469v4.508h4.469v4.508h4.469v4.509h8.938v-4.509h4.469v-4.508h4.468v40.574H977.7v13.524h4.469v9.017H933.007v-4.509h4.469v-9.016h4.469V426.427h4.469V394.869Zm0,0h-8.938v27.049h-4.469v9.017h8.938v-4.508h4.469Zm40.22,9.017H977.7v22.541h8.938V417.41h-4.469ZM964.29,462.492h8.937v-4.508H964.29Zm-13.407,0v-4.508h-8.938v4.508Z"/>
  </g>
</svg>
