<svg xmlns="http://www.w3.org/2000/svg" viewBox="661 3720.448 76.345 161.097">
  <defs>
    <style>
      .cls-1, .cls-2 {
        fill: #fae6ce;
      }

      .cls-11, .cls-12, .cls-13, .cls-2, .cls-5, .cls-6, .cls-7, .cls-8 {
        fill-rule: evenodd;
      }

      .cls-3 {
        fill: #e3c4a6;
      }

      .cls-4 {
        fill: #fff8ef;
      }

      .cls-6 {
        fill: rgba(113,74,28,0.25);
      }

      .cls-7 {
        fill: rgba(255,252,249,0.7);
      }

      .cls-8 {
        fill: #f3cca7;
      }

      .cls-9 {
        fill: #8f00ff;
      }

      .cls-10, .cls-11 {
        fill: rgba(0,0,0,0.2);
      }

      .cls-12 {
        fill: #fff;
      }

      .cls-13 {
        fill: rgba(255,255,255,0.3);
      }
    </style>
  </defs>
  <g id="purple" transform="translate(141 3408)">
    <path id="Path_253" data-name="Path 253" class="cls-1" d="M545.737,318.668h30.82v4.4h4.4v4.4h4.4v57.238h-4.4v4.4h-4.4v4.4H550.14v-4.4h-8.806v-4.4h-4.4V375.9h-8.806V362.7h4.4V327.473h4.4v-4.4h8.806Z"/>
    <path id="Path_254" data-name="Path 254" class="cls-2" d="M541.334,397.92h35.223v4.4h4.4v8.8h-4.4v26.418h4.4v8.806h-4.4v22.014h-8.8V446.352h-4.4v8.805h-4.4v4.4h-4.4v8.806h-8.806V441.949h4.4v-4.4H536.931V402.323h4.4Zm4.4,8.806h4.4v26.417h-4.4Z"/>
    <path id="Path_255" data-name="Path 255" class="cls-1" d="M580.96,411.128h4.4v13.209h4.4v8.806H580.96Z"/>
    <path id="Path_256" data-name="Path 256" class="cls-3" d="M576.559,318.668H554.544v4.4h17.612v4.4h8.806V362.7h4.4V327.473h-4.4v-4.4h-4.4Z"/>
    <path id="Path_257" data-name="Path 257" class="cls-3" d="M536.933,327.473h-4.4v17.612h4.4Z"/>
    <path id="Path_258" data-name="Path 258" class="cls-3" d="M532.53,367.1h4.4v-4.4h4.4v22.014h-4.4V371.5h-4.4Z"/>
    <path id="Path_259" data-name="Path 259" class="cls-3" d="M541.336,384.711h13.208v4.4h22.015v4.4H550.141v-4.4h-8.8Z"/>
    <path id="Path_260" data-name="Path 260" class="cls-3" d="M580.962,411.128h4.4v13.209h4.4v8.806h-8.805Z"/>
    <path id="Path_261" data-name="Path 261" class="cls-3" d="M580.962,411.128h-4.4v-4.4h-4.4v-4.4H550.141v-4.4h26.418v4.4h4.4Z"/>
    <path id="Path_262" data-name="Path 262" class="cls-3" d="M580.962,437.546h-4.4V415.531h-4.4v22.015h4.4v8.806h4.4Z"/>
    <path id="Path_263" data-name="Path 263" class="cls-3" d="M572.156,450.755h4.4v17.611h-4.4Z"/>
    <path id="Path_264" data-name="Path 264" class="cls-3" d="M550.141,441.949h-4.4v26.417h8.806V459.56h-4.4Z"/>
    <path id="Path_265" data-name="Path 265" class="cls-3" d="M558.947,446.352h4.4v4.4h-4.4Z"/>
    <path id="Path_266" data-name="Path 266" class="cls-3" d="M545.738,415.531h-4.4V428.74h-4.4v8.806h13.208v-4.4h-4.4Z"/>
    <path id="Path_267" data-name="Path 267" class="cls-4" d="M550.14,327.473h4.4v4.4h-4.4Z"/>
    <path id="Path_268" data-name="Path 268" class="cls-4" d="M572.154,327.473H558.946v4.4h13.208v4.4h4.4v4.4h4.4v-4.4h-4.4v-4.4h-4.4Z"/>
    <path id="Path_269" data-name="Path 269" class="cls-4" d="M532.528,362.7h-4.4v4.4h4.4Z"/>
    <path id="Path_270" data-name="Path 270" class="cls-4" d="M541.334,397.92h8.806v4.4h-8.806Z"/>
    <path id="Path_271" data-name="Path 271" class="cls-4" d="M541.334,402.323v4.4h-4.4v-4.4Z"/>
    <path id="Path_272" data-name="Path 272" class="cls-4" d="M558.946,413.33h-4.4v8.806h4.4Z"/>
    <path id="Path_273" data-name="Path 273" class="cls-4" d="M558.946,413.33h4.4v-4.4h-4.4Z"/>
    <path id="Path_274" data-name="Path 274" class="cls-4" d="M567.752,441.949h-4.4v4.4h4.4Z"/>
    <path id="Path_275" data-name="Path 275" class="cls-5" d="M576.558,314.265h-30.82v4.4h-8.806v4.4h-4.4v4.4h-4.4V362.7h-4.4V375.9h4.4v4.4h4.4v4.4h4.4v4.4h4.4v8.806h-4.4v4.4h-4.4v35.223h4.4v4.4h4.4v30.82h17.611V459.56h4.4v13.209h22.015v-4.4h-4.4V446.352h4.4v-8.806h4.4v-4.4h4.4v-8.806h-4.4V411.128h-4.4v-8.8h-4.4v-4.4h-4.4v-4.4h4.4v-4.4h4.4v-4.4h4.4V327.473h-4.4v-4.4h-4.4v-4.4h-4.4Zm0,4.4v4.4h4.4v4.4h4.4v57.238h-4.4v4.4h-4.4v4.4H550.141v-4.4h-8.806v-4.4h-4.4V375.9h-8.806V362.7h4.4v4.4h4.4v-4.4h-4.4V327.473h4.4v-4.4h8.806v-4.4Zm4.4,92.46h-4.4v26.418h4.4v8.806h-4.4v22.014h-8.806V446.352h-4.4v4.4h-4.4v8.8h-4.4v8.806h-8.805V441.949h8.805v-8.806h-4.4V406.726h-4.4v26.417h4.4v4.4H536.932V402.323h4.4v-4.4h35.223v4.4h4.4Zm0,0v22.015h8.806v-8.806h-4.4V411.128Z"/>
    <path id="Path_328" data-name="Path 328" class="cls-2" d="M575.861,318.721H545.448v4.41h-8.69v61.742H541.1v4.41h8.69v4.41h26.068v-4.41h4.345v-4.41h4.345V327.541h-4.345v-4.41h-4.345Zm-47.793,44.1h4.345V327.541h4.345v48.512h-8.69Z"/>
    <path id="Path_329" data-name="Path 329" class="cls-6" d="M554.137,318.721h21.724v4.41h4.345v4.41h-8.689v-4.41h-17.38Zm26.069,8.82h4.345v35.281h-4.345Zm-47.793,0h4.345v35.281h-4.345Zm8.69,57.332h-4.345V371.642h-4.345v-4.41h4.345v-4.41H541.1Zm13.034,4.41v-4.41H541.1v4.41h8.689v4.41h26.069v-4.41Zm-17.379-61.742v-4.41H541.1v4.41Z"/>
    <path id="Path_330" data-name="Path 330" class="cls-7" d="M554.137,327.541h-4.344v4.41h4.344Zm4.345,0h13.035v4.41H558.482Zm13.035,4.41h4.344v4.41h-4.344Zm-43.449,30.871h4.345v4.41h-4.345Zm52.138-26.461h-4.345v4.41h4.345Z"/>
    <path id="Path_331" data-name="Path 331" class="cls-5" d="M562.827,358.412H549.792v4.41h4.345v8.82h4.345v-8.82h4.345Zm0,22.051h8.69v4.41h-8.69Zm0,0h-4.345v-4.41h4.345Zm8.69-22.051h8.689v4.41h-4.345v8.82h-4.344Z"/>
    <path id="Path_332" data-name="Path 332" class="cls-6" d="M567.172,358.412h-4.345v4.41h-4.345v4.41h4.345v-4.41h4.345Z"/>
    <path id="Path_333" data-name="Path 333" class="cls-5" d="M545.448,314.31h30.414v4.411H545.448Zm-8.69,8.821v-4.41h8.69v4.41Zm-4.345,4.41v-4.41h4.345v4.41Zm0,35.281V327.541h-4.345v35.281h-4.344v13.231h4.344v4.41h4.345v4.41h4.345v4.41H541.1v4.41h8.69v4.41h26.069v-4.41h4.344v-4.41h4.345v-4.41H588.9V327.541h-4.345v-4.41h-4.345v-4.41h-4.344v4.41h4.344v4.41h4.345v57.332h-4.345v4.41h-4.344v4.41H549.793v-4.41H541.1v-4.41h-4.345v-8.82h-8.69V362.822Zm0,0v4.41h4.345v-4.41Z"/>
    <path id="Path_334" data-name="Path 334" class="cls-1" d="M545.737,318.668h30.82v4.4h4.4v4.4h4.4v57.238h-4.4v4.4h-4.4v4.4H550.14v-4.4h-8.806v-4.4h-4.4V375.9h-8.806V362.7h4.4V327.473h4.4v-4.4h8.806Z"/>
    <path id="Path_335" data-name="Path 335" class="cls-2" d="M541.334,397.92h35.223v4.4h4.4v8.8h-4.4v26.418h4.4v8.806h-4.4v22.014h-8.8V446.352h-4.4v8.805h-4.4v4.4h-4.4v8.806h-8.806V441.949h4.4v-4.4H536.931V402.323h4.4Zm4.4,8.806h4.4v26.417h-4.4Z"/>
    <path id="Path_336" data-name="Path 336" class="cls-1" d="M580.96,411.128h4.4v13.209h4.4v8.806H580.96Z"/>
    <path id="Path_337" data-name="Path 337" class="cls-3" d="M576.559,318.668H554.544v4.4h17.612v4.4h8.806V362.7h4.4V327.473h-4.4v-4.4h-4.4Z"/>
    <path id="Path_338" data-name="Path 338" class="cls-3" d="M536.933,327.473h-4.4v17.612h4.4Z"/>
    <path id="Path_339" data-name="Path 339" class="cls-3" d="M532.53,367.1h4.4v-4.4h4.4v22.014h-4.4V371.5h-4.4Z"/>
    <path id="Path_340" data-name="Path 340" class="cls-3" d="M541.336,384.711h13.208v4.4h22.015v4.4H550.141v-4.4h-8.8Z"/>
    <path id="Path_341" data-name="Path 341" class="cls-3" d="M580.962,411.128h4.4v13.209h4.4v8.806h-8.805Z"/>
    <path id="Path_342" data-name="Path 342" class="cls-3" d="M580.962,411.128h-4.4v-4.4h-4.4v-4.4H550.141v-4.4h26.418v4.4h4.4Z"/>
    <path id="Path_343" data-name="Path 343" class="cls-3" d="M580.962,437.546h-4.4V415.531h-4.4v22.015h4.4v8.806h4.4Z"/>
    <path id="Path_344" data-name="Path 344" class="cls-3" d="M572.156,450.755h4.4v17.611h-4.4Z"/>
    <path id="Path_345" data-name="Path 345" class="cls-3" d="M550.141,441.949h-4.4v26.417h8.806V459.56h-4.4Z"/>
    <path id="Path_346" data-name="Path 346" class="cls-3" d="M558.947,446.352h4.4v4.4h-4.4Z"/>
    <path id="Path_347" data-name="Path 347" class="cls-3" d="M545.738,415.531h-4.4V428.74h-4.4v8.806h13.208v-4.4h-4.4Z"/>
    <path id="Path_348" data-name="Path 348" class="cls-4" d="M550.14,327.473h4.4v4.4h-4.4Z"/>
    <path id="Path_349" data-name="Path 349" class="cls-4" d="M572.154,327.473H558.946v4.4h13.208v4.4h4.4v4.4h4.4v-4.4h-4.4v-4.4h-4.4Z"/>
    <path id="Path_350" data-name="Path 350" class="cls-4" d="M532.528,362.7h-4.4v4.4h4.4Z"/>
    <path id="Path_351" data-name="Path 351" class="cls-4" d="M541.334,397.92h8.806v4.4h-8.806Z"/>
    <path id="Path_352" data-name="Path 352" class="cls-4" d="M541.334,402.323v4.4h-4.4v-4.4Z"/>
    <path id="Path_353" data-name="Path 353" class="cls-4" d="M558.946,413.33h-4.4v8.806h4.4Z"/>
    <path id="Path_354" data-name="Path 354" class="cls-4" d="M558.946,413.33h4.4v-4.4h-4.4Z"/>
    <path id="Path_355" data-name="Path 355" class="cls-4" d="M567.752,441.949h-4.4v4.4h4.4Z"/>
    <path id="Path_356" data-name="Path 356" class="cls-5" d="M576.558,314.265h-30.82v4.4h-8.806v4.4h-4.4v4.4h-4.4V362.7h-4.4V375.9h4.4v4.4h4.4v4.4h4.4v4.4h4.4v8.806h-4.4v4.4h-4.4v35.223h4.4v4.4h4.4v30.82h17.611V459.56h4.4v13.209h22.015v-4.4h-4.4V446.352h4.4v-8.806h4.4v-4.4h4.4v-8.806h-4.4V411.128h-4.4v-8.8h-4.4v-4.4h-4.4v-4.4h4.4v-4.4h4.4v-4.4h4.4V327.473h-4.4v-4.4h-4.4v-4.4h-4.4Zm0,4.4v4.4h4.4v4.4h4.4v57.238h-4.4v4.4h-4.4v4.4H550.141v-4.4h-8.806v-4.4h-4.4V375.9h-8.806V362.7h4.4v4.4h4.4v-4.4h-4.4V327.473h4.4v-4.4h8.806v-4.4Zm4.4,92.46h-4.4v26.418h4.4v8.806h-4.4v22.014h-8.806V446.352h-4.4v4.4h-4.4v8.8h-4.4v8.806h-8.805V441.949h8.805v-8.806h-4.4V406.726h-4.4v26.417h4.4v4.4H536.932V402.323h4.4v-4.4h35.223v4.4h4.4Zm0,0v22.015h8.806v-8.806h-4.4V411.128Z"/>
    <path id="Path_357" data-name="Path 357" class="cls-2" d="M575.861,318.721H545.448v4.41h-8.69v61.742H541.1v4.41h8.69v4.41h26.068v-4.41h4.345v-4.41h4.345V327.541h-4.345v-4.41h-4.345Zm-47.793,44.1h4.345V327.541h4.345v48.512h-8.69Z"/>
    <path id="Path_358" data-name="Path 358" class="cls-6" d="M554.137,318.721h21.724v4.41h4.345v4.41h-8.689v-4.41h-17.38Zm26.069,8.82h4.345v35.281h-4.345Zm-47.793,0h4.345v35.281h-4.345Zm8.69,57.332h-4.345V371.642h-4.345v-4.41h4.345v-4.41H541.1Zm13.034,4.41v-4.41H541.1v4.41h8.689v4.41h26.069v-4.41Zm-17.379-61.742v-4.41H541.1v4.41Z"/>
    <path id="Path_359" data-name="Path 359" class="cls-7" d="M554.137,327.541h-4.344v4.41h4.344Zm4.345,0h13.035v4.41H558.482Zm13.035,4.41h4.344v4.41h-4.344Zm-43.449,30.871h4.345v4.41h-4.345Zm52.138-26.461h-4.345v4.41h4.345Z"/>
    <path id="Path_360" data-name="Path 360" class="cls-5" d="M562.827,358.412H549.792v4.41h4.345v8.82h4.345v-8.82h4.345Zm0,22.051h8.69v4.41h-8.69Zm0,0h-4.345v-4.41h4.345Zm8.69-22.051h8.689v4.41h-4.345v8.82h-4.344Z"/>
    <path id="Path_361" data-name="Path 361" class="cls-6" d="M567.172,358.412h-4.345v4.41h-4.345v4.41h4.345v-4.41h4.345Z"/>
    <path id="Path_362" data-name="Path 362" class="cls-5" d="M545.448,314.31h30.414v4.411H545.448Zm-8.69,8.821v-4.41h8.69v4.41Zm-4.345,4.41v-4.41h4.345v4.41Zm0,35.281V327.541h-4.345v35.281h-4.344v13.231h4.344v4.41h4.345v4.41h4.345v4.41H541.1v4.41h8.69v4.41h26.069v-4.41h4.344v-4.41h4.345v-4.41H588.9V327.541h-4.345v-4.41h-4.345v-4.41h-4.344v4.41h4.344v4.41h4.345v57.332h-4.345v4.41h-4.344v4.41H549.793v-4.41H541.1v-4.41h-4.345v-8.82h-8.69V362.822Zm0,0v4.41h4.345v-4.41Z"/>
    <path id="Path_363" data-name="Path 363" class="cls-1" d="M545.737,318.668h30.82v4.4h4.4v4.4h4.4v57.238h-4.4v4.4h-4.4v4.4H550.14v-4.4h-8.806v-4.4h-4.4V375.9h-8.806V362.7h4.4V327.473h4.4v-4.4h8.806Z"/>
    <path id="Path_364" data-name="Path 364" class="cls-2" d="M541.334,397.92h35.223v4.4h4.4v8.8h-4.4v26.418h4.4v8.806h-4.4v22.014h-8.8V446.352h-4.4v8.805h-4.4v4.4h-4.4v8.806h-8.806V441.949h4.4v-4.4H536.931V402.323h4.4Zm4.4,8.806h4.4v26.417h-4.4Z"/>
    <path id="Path_365" data-name="Path 365" class="cls-1" d="M580.96,411.128h4.4v13.209h4.4v8.806H580.96Z"/>
    <path id="Path_366" data-name="Path 366" class="cls-3" d="M576.559,318.668H554.544v4.4h17.612v4.4h8.806V362.7h4.4V327.473h-4.4v-4.4h-4.4Z"/>
    <path id="Path_367" data-name="Path 367" class="cls-3" d="M536.933,327.473h-4.4v17.612h4.4Z"/>
    <path id="Path_368" data-name="Path 368" class="cls-3" d="M532.53,367.1h4.4v-4.4h4.4v22.014h-4.4V371.5h-4.4Z"/>
    <path id="Path_369" data-name="Path 369" class="cls-3" d="M541.336,384.711h13.208v4.4h22.015v4.4H550.141v-4.4h-8.8Z"/>
    <path id="Path_370" data-name="Path 370" class="cls-3" d="M580.962,411.128h4.4v13.209h4.4v8.806h-8.805Z"/>
    <path id="Path_371" data-name="Path 371" class="cls-3" d="M580.962,411.128h-4.4v-4.4h-4.4v-4.4H550.141v-4.4h26.418v4.4h4.4Z"/>
    <path id="Path_372" data-name="Path 372" class="cls-3" d="M580.962,437.546h-4.4V415.531h-4.4v22.015h4.4v8.806h4.4Z"/>
    <path id="Path_373" data-name="Path 373" class="cls-3" d="M572.156,450.755h4.4v17.611h-4.4Z"/>
    <path id="Path_374" data-name="Path 374" class="cls-3" d="M550.141,441.949h-4.4v26.417h8.806V459.56h-4.4Z"/>
    <path id="Path_375" data-name="Path 375" class="cls-3" d="M558.947,446.352h4.4v4.4h-4.4Z"/>
    <path id="Path_376" data-name="Path 376" class="cls-3" d="M545.738,415.531h-4.4V428.74h-4.4v8.806h13.208v-4.4h-4.4Z"/>
    <path id="Path_377" data-name="Path 377" class="cls-4" d="M550.14,327.473h4.4v4.4h-4.4Z"/>
    <path id="Path_378" data-name="Path 378" class="cls-4" d="M572.154,327.473H558.946v4.4h13.208v4.4h4.4v4.4h4.4v-4.4h-4.4v-4.4h-4.4Z"/>
    <path id="Path_379" data-name="Path 379" class="cls-4" d="M532.528,362.7h-4.4v4.4h4.4Z"/>
    <path id="Path_380" data-name="Path 380" class="cls-4" d="M541.334,397.92h8.806v4.4h-8.806Z"/>
    <path id="Path_381" data-name="Path 381" class="cls-4" d="M541.334,402.323v4.4h-4.4v-4.4Z"/>
    <path id="Path_382" data-name="Path 382" class="cls-4" d="M558.946,413.33h-4.4v8.806h4.4Z"/>
    <path id="Path_383" data-name="Path 383" class="cls-4" d="M558.946,413.33h4.4v-4.4h-4.4Z"/>
    <path id="Path_384" data-name="Path 384" class="cls-4" d="M567.752,441.949h-4.4v4.4h4.4Z"/>
    <path id="Path_385" data-name="Path 385" class="cls-5" d="M576.558,314.265h-30.82v4.4h-8.806v4.4h-4.4v4.4h-4.4V362.7h-4.4V375.9h4.4v4.4h4.4v4.4h4.4v4.4h4.4v8.806h-4.4v4.4h-4.4v35.223h4.4v4.4h4.4v30.82h17.611V459.56h4.4v13.209h22.015v-4.4h-4.4V446.352h4.4v-8.806h4.4v-4.4h4.4v-8.806h-4.4V411.128h-4.4v-8.8h-4.4v-4.4h-4.4v-4.4h4.4v-4.4h4.4v-4.4h4.4V327.473h-4.4v-4.4h-4.4v-4.4h-4.4Zm0,4.4v4.4h4.4v4.4h4.4v57.238h-4.4v4.4h-4.4v4.4H550.141v-4.4h-8.806v-4.4h-4.4V375.9h-8.806V362.7h4.4v4.4h4.4v-4.4h-4.4V327.473h4.4v-4.4h8.806v-4.4Zm4.4,92.46h-4.4v26.418h4.4v8.806h-4.4v22.014h-8.806V446.352h-4.4v4.4h-4.4v8.8h-4.4v8.806h-8.805V441.949h8.805v-8.806h-4.4V406.726h-4.4v26.417h4.4v4.4H536.932V402.323h4.4v-4.4h35.223v4.4h4.4Zm0,0v22.015h8.806v-8.806h-4.4V411.128Z"/>
    <path id="Path_386" data-name="Path 386" class="cls-8" d="M566.924,399.249h-9.187v4.3h9.187Zm22.965,25.783H580.7v4.3H585.3v4.3h4.593Zm-55.117,4.3h-4.593v8.594h9.186v-8.594Zm9.186,0h-4.593v4.3h4.593Z"/>
    <path id="Path_387" data-name="Path 387" class="cls-6" d="M557.737,399.249h9.186v4.3h-9.186ZM580.7,425.032h9.186v8.594H585.3v-4.3H580.7Zm-41.338,4.3h4.593v4.3h-4.593v4.3h-4.594v-8.594Z"/>
    <rect id="Rectangle_15" data-name="Rectangle 15" class="cls-9" width="9.186" height="25.782" transform="translate(557.737 407.843)"/>
    <path id="Path_388" data-name="Path 388" class="cls-10" d="M562.33,407.843h4.593v25.783H562.33Z"/>
    <path id="Path_389" data-name="Path 389" class="cls-5" d="M548.551,394.952h-4.593v4.3h-4.593v4.3h-4.594v21.486h9.187V407.843h4.593Zm-4.593,38.674h4.593v8.594h-4.593Zm9.186-34.377h-4.593V442.22h4.593Zm13.779,4.3h4.593v-4.3h4.593v4.3H580.7v8.6h-4.594v21.485H580.7v8.594h-9.187v-8.594h-4.593Zm13.78,8.6v8.594H585.3v-8.594Z"/>
    <path id="Path_390" data-name="Path 390" class="cls-11" d="M543.958,394.952h4.593v4.3h-4.593Zm4.593,8.594v-4.3h4.593v4.3Zm0,0v4.3h-4.593v-4.3Zm22.965-4.3h4.594v4.3h-4.594Zm9.187,12.892v-8.6H576.11v8.6Zm0,0v8.594H585.3v-8.594Zm-4.593,12.891h-4.594V442.22H580.7v-8.594H576.11Zm-22.966,8.594h-9.186v8.594h9.186Zm-13.779-17.188h4.593v8.594h-4.593Z"/>
    <path id="Path_391" data-name="Path 391" class="cls-5" d="M548.551,390.655h-4.593v4.3h-4.593v4.3h-4.593v4.3h-4.593v25.783h-4.594v8.594h4.594v4.3h13.779v4.3h9.186v-4.3h4.593v-4.3h9.186v4.3h4.593V399.249h4.594v4.3H580.7v8.6H576.11v21.485H580.7v8.594h-9.187v4.3H580.7v-4.3H585.3v-4.3h4.593v-4.3h4.593v-8.594h-4.593V412.141H585.3v-8.6H580.7v-4.3H576.11v-4.3h-4.594v4.3h-4.593v4.3h-9.186v-4.3h-4.593v-4.3h-4.593Zm0,4.3v4.3h4.593V442.22h-9.186v-8.594h4.593V407.843h-4.593v17.189h-9.186V403.546h4.593v-4.3h4.593v-4.3Zm41.338,30.08v8.594H585.3v-4.3H580.7v-4.3h9.186ZM585.3,412.141H580.7v8.594H585.3Zm-18.373,21.485V407.843h-9.186v25.783Zm-22.965,0h-4.593v4.3h-9.186v-8.594h13.779Z"/>
    <path id="Path_412" data-name="Path 412" class="cls-5" d="M551.468,441.245H542.9V465.47h8.565v-4.037h4.283v-4.038h4.283V445.282h4.283V465.47h8.565v-4.037h4.283V441.245h-25.7Z"/>
    <path id="Path_413" data-name="Path 413" class="cls-5" d="M542.9,437.207H538.62v36.338h17.131V461.433h4.283v12.112h21.414v-4.037h-4.283v-8.075h4.283V437.207H542.9Zm21.414,32.3h8.565v-8.075h4.283V449.32h-4.283v-4.038h4.283v-4.037H542.9v4.037h4.283v4.038H542.9v20.188h8.565v-8.075h4.283v-4.038h4.283V445.282h4.283Z"/>
    <path id="Path_414" data-name="Path 414" class="cls-11" d="M542.9,441.245h4.283v4.037H542.9Zm0,8.075h4.283v4.037H542.9Zm8.565,12.113h-4.282v4.037h4.282Zm4.283-4.038h-4.283v4.038h4.283Zm0,0V445.282h4.283v12.113Zm21.414-16.15h-4.283v4.037h4.283Zm-4.283,8.075h4.283v4.037h-4.283Zm-4.283,0h-4.282v16.15h8.565v-8.075H568.6Z"/>
    <path id="Path_415" data-name="Path 415" class="cls-12" d="M551.468,465.47H542.9v4.038h8.565Zm21.414,0h-8.565v4.038h8.565Z"/>
    <path id="Path_416" data-name="Path 416" class="cls-11" d="M547.186,465.47H542.9v4.038h4.283Zm21.413,0h-4.282v4.038H568.6Z"/>
    <path id="Path_426" data-name="Path 426" class="cls-8" d="M577.352,320.779H546.069v4.606h-8.938v64.486H541.6v4.606h8.938v4.606h26.814v-4.606h4.468v-4.606h4.469v-59.88H581.82v-4.606h-4.469ZM528.193,366.84h4.469V329.991h4.469v50.668h-8.938Z"/>
    <path id="Path_427" data-name="Path 427" class="cls-6" d="M555.007,320.779h22.345v4.606h4.469v4.606h-8.938v-4.606H555.007Zm26.814,9.212h4.469V366.84h-4.469Zm-49.159,0h4.469V366.84h-4.469Zm8.938,59.88h-4.469V376.053h-4.469v-4.607h4.469V366.84H541.6Zm13.407,4.606v-4.606H541.6v4.606h8.938v4.606h26.814v-4.606Zm-17.876-64.486v-4.606H541.6v4.606Z"/>
    <path id="Path_428" data-name="Path 428" class="cls-7" d="M555.007,329.991h-4.469V334.6h4.469Zm4.469,0h13.407V334.6H559.476Zm13.407,4.606h4.468V339.2h-4.468Zm-44.69,32.243h4.469v4.606h-4.469ZM581.82,339.2h-4.469v4.606h4.469Z"/>
    <path id="Path_429" data-name="Path 429" class="cls-5" d="M563.945,362.234H550.538v4.606h4.469v9.213h4.469V366.84h4.469Zm0,23.031h8.938v4.606h-8.938Zm0,0h-4.469v-4.606h4.469Zm8.938-23.031h8.938v4.606h-4.469v9.213h-4.469Z"/>
    <path id="Path_430" data-name="Path 430" class="cls-6" d="M568.414,362.234h-4.469v4.606h-4.469v4.606h4.469V366.84h4.469Z"/>
    <path id="Path_431" data-name="Path 431" class="cls-5" d="M546.069,316.172h31.283v4.607H546.069Zm-8.938,9.213v-4.606h8.938v4.606Zm-4.469,4.606v-4.606h4.469v4.606Zm0,36.849V329.991h-4.469V366.84h-4.469v13.819h4.469v4.606h4.469v4.606h4.469v4.606H541.6v4.607h8.938v4.606h26.814v-4.606h4.469v-4.607h4.469v-4.606h4.469v-59.88H586.29v-4.606h-4.469v-4.606h-4.469v4.606h4.469v4.606h4.469v59.88h-4.469v4.606h-4.469v4.607H550.538v-4.607H541.6v-4.606h-4.469v-9.212h-8.938V366.84Zm0,0v4.606h4.469V366.84Z"/>
    <path id="Path_432" data-name="Path 432" class="cls-5" d="M552.145,316.421h-4.018v3.972h-4.018v3.973h-4.018v3.972h-8.037v3.972h-8.036v3.973h4.018v19.862h4.018v3.972h4.019v3.973h4.018v7.944h4.018V356.145h4.018V348.2h4.018v-3.972h28.127V348.2h4.018v3.972h4.018V340.255h4.019v-3.972h-4.019V332.31h4.019v-3.972H584.29v-3.972h-4.018v-3.973H568.218v-3.972Z"/>
    <path id="Path_433" data-name="Path 433" class="cls-11" d="M540.091,324.366h4.018v3.972h4.018v3.972h4.018v3.973h8.036v3.972h20.091v3.973H552.145V348.2h-4.018v7.945h-4.018v15.889h-4.018V364.09h-4.019v-3.973h-4.018v-3.972h-4.018V344.228h4.018V348.2h8.037v-3.972h4.018v-3.973h4.018v-3.972h-4.018V332.31h-4.018Zm48.217,15.889H584.29v3.973h-4.018V348.2h4.018v3.972h4.018Zm0,0h4.019v-3.972h-4.019Zm-12.054-7.945H564.2v3.973h12.055Zm0,0h8.036v-3.972h-8.036Z"/>
    <path id="Path_434" data-name="Path 434" class="cls-13" d="M552.145,324.366H564.2v3.972H552.145Zm-12.054,7.944h-4.018v3.973h-4.018v3.972h4.018v-3.972h4.018Zm32.145-7.944h-4.018v3.972h4.018Z"/>
    <path id="Path_435" data-name="Path 435" class="cls-5" d="M548.127,312.448h20.091v3.973H548.127Zm-4.018,7.945v-3.972h4.018v3.972Zm-4.018,3.973v-3.973h4.018v3.973Zm-8.037,3.972v-3.972h8.037v3.972Zm-8.036,3.972v-3.972h8.036v3.972Zm0,3.973H520V332.31h4.018Zm4.018,19.862h-4.018V336.283h4.018Zm0,0h4.018v7.945h-4.018Zm52.236-35.752H568.218v-3.972h12.054Zm4.018,3.973h-4.018v-3.973h4.018Zm8.037,3.972H584.29v-3.972h8.037Zm0,3.972v-3.972h4.018v3.972Zm0,3.973h-4.018V332.31h4.018Zm0,3.972h4.018v-3.972h-4.018Zm0,0v15.89h-4.018v-15.89Z"/>
  </g>
</svg>
